<?xml version="1.0"?>
<svg xmlns="http://www.w3.org/2000/svg" xmlns:xlink="http://www.w3.org/1999/xlink" xmlns:svgjs="http://svgjs.com/svgjs" version="1.1" width="512" height="512" x="0" y="0" viewBox="0 0 512 512" style="enable-background:new 0 0 512 512" xml:space="preserve" class=""><g><path xmlns="http://www.w3.org/2000/svg" d="m438.234375 149.101562h-174.734375v-25.632812c0-4.140625-3.355469-7.5-7.5-7.5h-9.066406v-33.917969c0-5 4.066406-9.070312 9.0625-9.070312l99.402344.003906c13.269531 0 24.066406-10.796875 24.066406-24.066406s-10.796875-24.066407-24.066406-24.066407h-158.167969v-17.351562c0-4.144531-3.355469-7.5-7.5-7.5h-49.695313c-4.144531 0-7.5 3.355469-7.5 7.5v.78125h-25.636718c-4.140626 0-7.5 3.359375-7.5 7.5v33.132812c0 4.144532 3.359374 7.5 7.5 7.5h25.636718v.785157c0 4.140625 3.355469 7.5 7.5 7.5h49.695313c4.144531 0 7.5-3.359375 7.5-7.5v-17.347657h158.167969c5 0 9.066406 4.066407 9.066406 9.066407 0 4.996093-4.066406 9.066406-9.066406 9.066406l-99.398438-.003906c-13.273438 0-24.066406 10.796875-24.066406 24.066406v33.921875h-9.066406c-4.140626 0-7.5 3.355469-7.5 7.5v25.632812h-50.484376c-4.144531 0-7.5 3.355469-7.5 7.5 0 4.140626 3.355469 7.5 7.5 7.5h57.964844.019532.019531 33.09375.019531.019531 182.210938c14.136719 0 25.632812 11.496094 25.632812 25.632813v281.632813c0 14.132812-11.496093 25.632812-25.632812 25.632812h-397.597657c-14.136718 0-25.632812-11.5-25.632812-25.632812v-281.632813c0-14.136719 11.496094-25.632813 25.632812-25.632813h92.273438c4.144531 0 7.5-3.359374 7.5-7.5 0-4.144531-3.355469-7.5-7.5-7.5h-92.273438c-22.40625 0-40.632812 18.226563-40.632812 40.632813v281.632813c0 22.40625 18.226562 40.632812 40.632812 40.632812h397.601563c22.402344 0 40.632813-18.226562 40.632813-40.632812v-281.632813c0-22.40625-18.230469-40.632813-40.632813-40.632813zm-323.835937-107.6875v-18.132812h18.136718v18.132812zm67.832031 8.285157h-34.695313v-34.699219h34.695313zm48.136719 81.269531h18.132812v18.132812h-18.132812zm0 0" fill="#00b0ff" data-original="#000000" style=""/><path xmlns="http://www.w3.org/2000/svg" d="m40.632812 230.367188h57.984376c2.308593 0 4.488281-1.066407 5.910156-2.886719 1.421875-1.820313 1.925781-4.191407 1.363281-6.433594l-8.28125-33.132813c-.835937-3.339843-3.835937-5.683593-7.277344-5.683593h-49.699219c-4.144531 0-7.5 3.359375-7.5 7.5v33.136719c0 4.140624 3.355469 7.5 7.5 7.5zm7.5-33.136719h36.34375l4.535157 18.136719h-40.878907zm0 0" fill="#00b0ff" data-original="#000000" style=""/><path xmlns="http://www.w3.org/2000/svg" d="m380.25 230.367188h57.984375c4.140625 0 7.5-3.359376 7.5-7.5v-33.136719c0-4.140625-3.359375-7.5-7.5-7.5h-49.703125c-3.441406 0-6.441406 2.34375-7.277344 5.683593l-8.28125 33.132813c-.558594 2.242187-.058594 4.613281 1.367188 6.433594 1.417968 1.820312 3.601562 2.886719 5.910156 2.886719zm14.136719-33.136719h36.347656v18.136719h-40.878906zm0 0" fill="#00b0ff" data-original="#000000" style=""/><path xmlns="http://www.w3.org/2000/svg" d="m90.332031 281.632812h-16.566406c-4.144531 0-7.5 3.359376-7.5 7.5v16.566407c0 4.144531 3.355469 7.5 7.5 7.5s7.5-3.355469 7.5-7.5v-9.066407h9.066406c4.144531 0 7.5-3.355468 7.5-7.5 0-4.140624-3.355469-7.5-7.5-7.5zm0 0" fill="#00b0ff" data-original="#000000" style=""/><path xmlns="http://www.w3.org/2000/svg" d="m90.332031 430.730469h-9.066406v-9.066407c0-4.140624-3.355469-7.5-7.5-7.5-4.140625 0-7.5 3.359376-7.5 7.5v16.566407c0 4.144531 3.359375 7.5 7.5 7.5h16.566406c4.144531 0 7.5-3.355469 7.5-7.5 0-4.140625-3.355469-7.5-7.5-7.5zm0 0" fill="#00b0ff" data-original="#000000" style=""/><path xmlns="http://www.w3.org/2000/svg" d="m405.097656 414.167969c-4.140625 0-7.5 3.355469-7.5 7.5v9.0625h-9.066406c-4.140625 0-7.5 3.359375-7.5 7.5 0 4.144531 3.359375 7.5 7.5 7.5h16.566406c4.144532 0 7.5-3.355469 7.5-7.5v-16.5625c0-4.144531-3.355468-7.5-7.5-7.5zm0 0" fill="#00b0ff" data-original="#000000" style=""/><path xmlns="http://www.w3.org/2000/svg" d="m388.53125 296.632812h9.066406v9.066407c0 4.144531 3.355469 7.5 7.5 7.5 4.144532 0 7.5-3.355469 7.5-7.5v-16.566407c0-4.140624-3.355468-7.5-7.5-7.5h-16.566406c-4.140625 0-7.5 3.359376-7.5 7.5 0 4.144532 3.359375 7.5 7.5 7.5zm0 0" fill="#00b0ff" data-original="#000000" style=""/><path xmlns="http://www.w3.org/2000/svg" d="m330.167969 207.511719c-9.382813-9.382813-24.648438-9.382813-34.035157 0l-40.992187 40.988281h-214.507813c-4.144531 0-7.5 3.355469-7.5 7.5v215.363281c0 4.144531 3.355469 7.5 7.5 7.5h397.601563c4.144531 0 7.5-3.355469 7.5-7.5v-215.363281c0-4.144531-3.355469-7.5-7.5-7.5h-115.015625l6.949219-6.949219c9.382812-9.386719 9.382812-24.65625 0-34.039062zm-10.605469 10.605469c3.535156 3.535156 3.535156 9.289062 0 12.824218l-6.410156 6.410156-12.824219-12.824218 6.410156-6.410156c3.535157-3.535157 9.289063-3.53125 12.824219 0zm-123.554688 136.375-12.824218-12.820313 106.535156-106.535156 12.824219 12.824219zm-33.503906 20.683593.003906-12.824219 10.070313-10.074218 12.824219 12.824218-10.074219 10.074219zm268.230469-111.675781v200.363281h-382.601563v-200.363281h192.007813l-90.4375 90.441406c-1.40625 1.40625-2.195313 3.3125-2.195313 5.300782l-.003906 20.324218-3.660156 3.660156c-2.929688 2.929688-2.929688 7.679688 0 10.609376 1.464844 1.460937 3.386719 2.195312 5.304688 2.195312 1.917968 0 3.839843-.734375 5.304687-2.195312l3.660156-3.664063 20.320313.003906c1.988281 0 3.894531-.792969 5.304687-2.199219l17.566407-17.566406c.003906 0 .003906-.003906.007812-.003906 0-.003906.003906-.007812.007812-.007812l106.898438-106.898438zm0 0" fill="#00b0ff" data-original="#000000" style=""/></g></svg>
